<?xml version="1.0" encoding="UTF-8"?>
<svg width="700pt" height="700pt" version="1.1" viewBox="0 0 700 700" xmlns="http://www.w3.org/2000/svg">
 <path d="m530.07 117.77c-49.348-49.348-128.45-51.273-180.07-5.7734-51.625-45.5-130.73-43.574-180.07 5.7734-25.027 25.027-38.676 58.102-38.676 93.277s13.648 68.25 38.676 93.102l173.95 173.95c1.5742 1.5742 3.8516 2.625 6.125 2.625s4.5508-0.875 6.125-2.625l173.95-173.95c24.852-24.852 38.676-57.926 38.676-93.102s-13.648-68.25-38.676-93.277zm-12.25 174.12-167.82 167.65-167.82-167.82c-21.527-21.527-33.426-50.227-33.426-80.676s11.898-59.148 33.426-80.852c22.227-22.227 51.449-33.426 80.852-33.426 29.227 0 58.449 11.199 80.852 33.426 3.5 3.5 8.9258 3.5 12.426 0 44.625-44.625 117.07-44.625 161.52 0 21.523 21.523 33.426 50.227 33.426 80.852-0.003906 30.449-11.902 59.148-33.43 80.848z"/>
</svg>
